<svg xmlns="http://www.w3.org/2000/svg" viewBox="0 0 63.04 62.84"><defs><style>.cls-1{fill:#dd5c34;}</style></defs><title>Asset 2</title><g id="Layer_2" data-name="Layer 2"><g id="Layer_1-2" data-name="Layer 1"><path class="cls-1" d="M35,55.23H23.95a1.84,1.84,0,1,1,0-3.68H35a1.84,1.84,0,1,1,0,3.68M7.39,42.34A1.84,1.84,0,0,1,9.23,40.5H27.64a1.84,1.84,0,1,1,0,3.68H9.23a1.84,1.84,0,0,1-1.85-1.84m1.85-9.2H27.64a1.84,1.84,0,1,1,0,3.68H9.23a1.84,1.84,0,1,1,0-3.68m0-7.36H27.64a1.84,1.84,0,1,1,0,3.68H9.23a1.84,1.84,0,1,1,0-3.68m0-7.36H35a1.84,1.84,0,1,1,0,3.68H9.23a1.84,1.84,0,1,1,0-3.68m33.87,28.9-5.87,2-.9,0A4.6,4.6,0,0,1,32,43.25L33.73,38a7.39,7.39,0,0,1,1.77-2.87L48,22.7v-8H35a1.79,1.79,0,0,1-1.79-1.84V0H5.54A5.54,5.54,0,0,0,0,5.52V57.31a5.54,5.54,0,0,0,5.54,5.52H42.42A5.58,5.58,0,0,0,48,57.31V43.57l-2,2a7.36,7.36,0,0,1-2.87,1.76"/><path class="cls-1" d="M36.64,45.59,41.45,44l-4.38-4.37-1.61,4.81a.92.92,0,0,0,1.17,1.16"/><path class="cls-1" d="M39.26,36.58l5.25,5.23L56.66,29.69l-5.25-5.23Z"/><path class="cls-1" d="M62,19.18a3.87,3.87,0,0,0-5.24,0L54,21.86l5.24,5.23L62,24.41a3.7,3.7,0,0,0,0-5.23"/></g></g></svg>