<?xml version="1.0" encoding="UTF-8"?>
<svg id="Capa_2" xmlns="http://www.w3.org/2000/svg" viewBox="0 0 34.37 39.06">
  <defs>
    <style>
      .cls-1 {
        fill: #f05122;
      }
    </style>
  </defs>
  <g id="Capa_1-2" data-name="Capa_1">
    <g>
      <g>
        <g>
          <path class="cls-1" d="M22.55,22.07c-.04-.54-.2-1.06-.47-1.54-.51-.92-1.03-1.85-1.53-2.77-.26-.48-.6-.9-1.04-1.24-.59-.45-1.24-.7-1.95-.75-.32-.02-.64-.03-.95-.04-.51-.02-1.02-.05-1.53-.07-.64-.03-1.28-.06-1.92-.09-.19,0-.39,0-.58,0-.04,0-.08,0-.12,0-.11.02-.22.04-.33.07-.3.08-.57.2-.84.34-.13.07-.26.15-.39.24-.1.06-.19.14-.29.2,0,0,0,0,0,0-.77.52-1.53,1.04-2.31,1.55-.73.48-1.21,1.15-1.4,2.02-.33,1.45-.66,2.91-1,4.36-.07.32-.12.65-.1.99.07,1.08.14,2.15.22,3.23.02.22.05.44.11.65.41,1.58,1.9,2.75,3.52,2.75,2.2,0,4.4,0,6.6,0,.53,0,1.02-.12,1.48-.35,1.12-.57,2.24-1.13,3.36-1.7.49-.24.9-.57,1.22-1.01.42-.6.63-1.29.58-2.05-.1-1.6-.22-3.2-.33-4.79ZM8.4,22.19c.17-.69.33-1.39.5-2.08.05-.19.16-.33.33-.42.46-.25.93-.52,1.39-.77.39-.21.86.03.96.48.12.56.24,1.12.36,1.68,0,.03,0,.06.01.11,0,.24-.1.43-.32.55-.45.24-.9.48-1.35.72-.31.17-.62.34-.93.5-.37.2-.83-.02-.94-.43-.03-.11-.03-.22,0-.33ZM21.98,26.65c.03.39-.02.77-.15,1.13-.04.11-.1.21-.17.31-.16.22-.38.31-.66.31-.42,0-.85,0-1.27,0h-.14v.03c.21,0,.41,0,.62,0,.25.01.51.03.76.05.05,0,.09.02.14.04.14.06.17.19.06.28-.12.09-.24.18-.37.25-.93.48-1.87.95-2.81,1.42-.22.11-.44.22-.66.33-.37.19-.76.29-1.19.29-2.17,0-4.34,0-6.5,0-.78,0-1.45-.28-2-.86-.37-.39-.61-.85-.7-1.37-.03-.14-.04-.29-.05-.43.07.46.18.91.42,1.32.19.33.45.59.84.69.27.07.54.04.79-.04.32-.11.63-.23.94-.36,1.07-.42,2.15-.85,3.22-1.27.4-.16.81-.24,1.24-.28.4-.04.81-.06,1.17-.09-.11,0-.26,0-.41,0-.3,0-.58-.08-.8-.32-.16-.17-.25-.38-.3-.6-.03-.15-.06-.3-.07-.45-.12-1.72-.24-3.44-.36-5.17-.02-.27-.07-.52-.13-.78-.16-.64-.32-1.28-.47-1.92-.15-.6-.29-1.19-.44-1.79-.03-.11-.06-.22-.09-.33-.01-.05-.03-.09-.06-.13-.09-.17-.25-.24-.43-.21-.03,0-.05.01-.08.02,0,0,0-.01,0-.02.13-.05.27-.11.4-.15.29-.09.58-.12.89-.1.3.02.6.03.9.04.35.02.7.03,1.05.05.3.01.61.03.91.04.35.02.7.03,1.04.05.18,0,.37.01.55.03.42.03.81.16,1.18.39.46.28.79.67,1.04,1.14.2.38.41.75.62,1.12.31.57.63,1.14.94,1.71.18.34.28.7.31,1.07.11,1.53.21,3.05.31,4.58Z"/>
          <path class="cls-1" d="M17.21,20.84c-.58,0-1.16,0-1.74,0-.35,0-.58-.16-.68-.51-.18-.61-.35-1.23-.53-1.84-.1-.36.16-.69.53-.69.65,0,1.3,0,1.95,0,.38,0,.77,0,1.15,0,.26,0,.46.11.59.35.33.61.67,1.22,1,1.83.23.42-.02.85-.48.85-.6,0-1.2,0-1.79,0Z"/>
        </g>
        <path class="cls-1" d="M34.37.13c-4.09-.68-9.29,1.27-10.49,5.37-.1.34-.17.69-.21,1.04,0,.01,0,.03,0,.04-.01.12-.02.24-.03.37,0,0,0,.01,0,.02,0,.12,0,.24,0,.36,0,0,0,.02,0,.03,0,.12,0,.24.01.36,0,.02,0,.04,0,.05,0,.12.02.24.03.36,0,0,0,0,0,.01.01.12.03.23.04.35,0,.02,0,.04,0,.06.02.11.04.23.06.34,0,.02,0,.04.01.07.02.12.05.23.08.34-.78.37-1.59.68-2.42.91-.18.05-.36.1-.54.15-.06.01-.11.03-.17.04-.12.03-.25.06-.37.09-.07.01-.13.03-.2.04-.12.02-.23.05-.35.07-.07.01-.13.03-.2.04-.12.02-.24.04-.36.06-.06,0-.12.02-.18.03-.16.02-.32.04-.48.06-.02,0-.04,0-.06,0-.18.02-.36.04-.54.05-.05,0-.11,0-.16.01-.13,0-.25.02-.38.02-.07,0-.13,0-.2,0-.12,0-.23,0-.35,0-.07,0-.13,0-.2,0-.12,0-.24,0-.36,0-.06,0-.12,0-.18,0-.15,0-.29-.01-.44-.02-.03,0-.06,0-.09,0-.18-.01-.35-.02-.53-.04-.05,0-.1-.01-.15-.02-.13-.01-.25-.03-.38-.04-.06,0-.13-.02-.19-.02-.11-.02-.23-.03-.34-.05-.06,0-.13-.02-.19-.03-.12-.02-.23-.04-.35-.06-.06-.01-.12-.02-.18-.03-.14-.03-.28-.06-.41-.09-.03,0-.07-.01-.1-.02-.17-.04-.35-.08-.52-.13-.04-.01-.08-.02-.12-.03-.13-.03-.26-.07-.39-.11-.06-.02-.11-.03-.17-.05-.11-.03-.23-.07-.34-.11-.06-.02-.12-.04-.18-.06-.11-.04-.23-.08-.34-.12-.05-.02-.11-.04-.16-.06-.13-.05-.26-.1-.39-.15-.03-.01-.07-.03-.1-.04-.17-.07-.33-.13-.5-.21-.02-.01-.05-.02-.07-.03-.14-.06-.28-.12-.41-.19-.05-.02-.09-.04-.14-.07-.11-.05-.23-.11-.34-.17-.05-.03-.1-.05-.15-.08-.11-.06-.22-.12-.34-.18-.05-.02-.09-.05-.14-.07-.13-.07-.26-.14-.38-.21-.03-.02-.05-.03-.08-.05-.16-.09-.32-.19-.47-.28,0,0,0,0,0,0-.42-.26-.82-.54-1.21-.83,0,0,0,0,0,0-.4-.29-.78-.6-1.15-.92-.21.13-.42.27-.62.42-.37.27-.7.55-1.02.84.71.58,1.45,1.12,2.22,1.6h0c.05.03.11.06.16.1.09.06.18.11.28.17.07.04.14.08.21.12.1.06.2.12.31.17.06.04.13.07.19.11.13.07.26.13.39.2.04.02.08.04.12.06.17.09.34.17.52.25.04.02.09.04.13.06.13.06.26.12.4.17.06.03.12.05.18.08.12.05.24.1.36.14.06.03.13.05.19.07.12.05.25.09.37.14.06.02.11.04.17.06.18.06.36.12.55.18.23.07.46.14.69.21.07.02.14.04.21.06.16.04.33.09.49.13.08.02.15.04.23.05.18.04.35.08.53.11.06.01.12.02.17.04.23.04.46.08.69.12.05,0,.11.01.16.02.18.03.36.05.54.07.08,0,.15.02.23.03.16.02.32.03.49.04.07,0,.15.01.22.02.21.01.41.02.62.03.02,0,.05,0,.07,0,.23,0,.45,0,.68,0,.07,0,.14,0,.21,0,.16,0,.32,0,.48-.01.08,0,.16,0,.24-.01.16,0,.33-.02.49-.03.07,0,.13,0,.2-.02.22-.02.44-.05.66-.07.05,0,.1-.02.15-.02.17-.02.34-.05.51-.08.08-.01.16-.03.24-.04.15-.03.29-.06.44-.09.08-.02.15-.03.23-.05.17-.04.35-.08.52-.12.04-.01.09-.02.13-.03.21-.05.42-.11.63-.18.07-.02.14-.04.21-.07.14-.04.28-.09.43-.14.08-.03.16-.05.24-.08.14-.05.28-.1.42-.15.07-.03.14-.05.21-.08.2-.08.4-.16.59-.25.05-.02.1-.05.15-.07.15-.07.3-.14.45-.21.07-.04.15-.07.22-.11.13-.06.25-.13.37-.2.07-.04.15-.08.22-.12.14-.08.27-.16.41-.24.05-.03.11-.06.16-.09.18-.11.36-.22.54-.34.06-.04.13-.09.19-.13.12-.08.24-.16.36-.25.07-.05.14-.1.21-.15.11-.08.23-.17.34-.26.06-.05.13-.1.19-.15.17-.13.33-.27.49-.41.29-.25.57-.52.84-.79.15-.15.3-.32.45-.48.1-.11.2-.22.3-.33.19-.22.38-.45.56-.68.04-.05.08-.1.11-.15.38-.5.75-1.01,1.07-1.55l-.29-.2c-.22.31-.45.61-.68.9-.15.18-.3.36-.46.54-.11.12-.22.25-.33.37-.14.15-.28.3-.42.44-.16.16-.32.31-.48.46-.12.11-.23.22-.35.32-.29.26-.59.51-.91.74-.1.07-.19.15-.29.22-.49.35-1.01.68-1.55.98-.02-.12-.04-.24-.06-.36,0-.04-.01-.08-.02-.11-.01-.09-.02-.18-.03-.26,0-.06,0-.13-.01-.19,0-.07,0-.14,0-.21,0-.07,0-.14,0-.21,0-.03,0-.06,0-.09,0-.25.03-.5.07-.74.03-.17.06-.34.1-.5.12-.49.31-.96.56-1.4h0c.35-.59.81-1.13,1.4-1.58,1.68-1.31,3.99-2.02,6.22-1.95-.02.86-.09,1.71-.23,2.54-.13.85-.38,1.7-.72,2.51-.04.08-.07.16-.11.24-.08.17-.17.34-.26.51-.04.08-.08.16-.13.23-.13.22-.26.43-.4.63-.01.02-.02.04-.03.05-.15.21-.32.42-.5.61-.05.06-.11.11-.16.17-.14.14-.28.28-.42.41-.06.05-.12.1-.18.15-.21.17-.42.33-.64.46-.07.05-.15.09-.22.13,0,0,0,0-.01,0-.07.04-.14.08-.22.11-.01,0-.02.01-.03.02-.07.03-.14.07-.21.1-.02,0-.04.02-.05.02-.06.03-.13.05-.19.08-.03.01-.05.02-.08.03-.06.02-.12.04-.18.06-.04.01-.07.02-.11.03-.05.02-.1.03-.16.05-.05.01-.1.03-.16.04-.04.01-.08.02-.12.03-.09.02-.19.04-.29.06.12,0,.24-.02.36-.04.04,0,.08-.01.11-.02.09-.01.17-.03.25-.05.04,0,.08-.02.12-.02.1-.02.2-.05.3-.08.07-.02.13-.04.2-.06.04-.01.07-.02.11-.04.25-.09.49-.19.73-.31,0,0,0,0,0,0,1.25-.63,2.3-1.67,3.01-2.87.12-.2.23-.4.33-.6.98-1.9,1.37-4.08,1.53-6.24Z"/>
      </g>
      <g>
        <path class="cls-1" d="M6.58,6.18s.03.02.04.03c.45.33.8.57,1.13.77,0,0,0,0,.01,0,.14.09.29.17.43.26l.07.04c.12.07.24.13.36.2l.09.05c.14.07.24.13.35.18l.14.07c.11.05.21.1.32.15l.13.06c.13.06.26.12.39.17l.06.03c.16.07.31.13.47.19l.09.04c.12.05.24.09.37.14l.1.04c.15.05.26.09.37.13l.64.2c.12.03.24.07.36.1l.11.03c.16.04.32.08.48.12l.1.02c.13.03.26.06.39.08l1.16.18c.12.01.23.03.35.04,0,0,.07,0,.07,0h.07c.16.02.33.03.49.04h.08c.14.01.27.02.41.02h.17c.11,0,.22,0,.33,0h.18c.11,0,.21,0,.32,0h.19c.11-.01.23-.02.34-.03h.15c.16-.02.33-.04.49-.06.2-.02.35-.04.5-.06l.17-.03c.11-.02.22-.04.33-.05l.19-.03c.11-.02.21-.04.32-.06l.18-.04c.11-.03.23-.05.34-.08,0,0,.06-.01.06-.02l.09-.02c.17-.04.33-.09.5-.14.44-.13.88-.27,1.32-.45-.01-.08-.02-.16-.03-.23-.02-.16-.03-.29-.04-.43-.01-.2-.01-.34-.02-.49,0-.17,0-.32.01-.46,0-.16.02-.31.04-.45.03-.3.08-.57.14-.83-1.87-.59-4.15-.85-6.86-.85h-2.36c-2.89,0-5.3.3-7.24.98.18.14.36.29.53.43Z"/>
        <path class="cls-1" d="M28.35,11.62c-.13.03-.23.05-.34.06l-.14.02c-.15.02-.29.04-.45.05-.69.05-1.3-.45-1.39-1.13,0-.02,0-.05,0-.07-.1.07-.21.13-.31.19l-.17.1c-.15.09-.29.17-.44.26l-.22.12c-.15.08-.28.15-.42.22l-.24.12c-.16.08-.32.15-.48.23l-.16.07c-.21.09-.42.18-.64.27l-.22.09c-.15.06-.3.11-.45.17l-.25.09c-.15.05-.3.1-.46.15l-.23.07c-.22.07-.45.13-.67.19l-.1.03c-.23.06-.41.1-.6.14l-.21.04c-.2.04-.36.07-.51.1l-.25.04c-.18.03-.37.06-.55.08l-.16.02c-.24.03-.47.06-.71.08h-.15c-.23.03-.41.04-.58.05h-.26c-.17.02-.34.02-.51.03h-.23c-.06,0-.11,0-.17,0-.03,0-.06,0-.09,0v.87l1.38.06c.23,0,.46.02.69.03.97.07,1.85.42,2.64,1.02.56.43,1.03.98,1.39,1.64.51.92,1.02,1.85,1.53,2.77.37.66.58,1.36.63,2.08l.11,1.66c.07,1.05.15,2.09.21,3.14.07,1.04-.21,2.01-.82,2.88-.42.59-.99,1.07-1.7,1.43-.72.36-1.45.73-2.17,1.09l-1.19.6c-.64.32-1.34.49-2.07.49h-6.6c-2.21,0-4.22-1.57-4.77-3.73-.08-.29-.12-.59-.15-.88-.07-.93-.13-1.86-.19-2.79l-.03-.45c-.03-.43.01-.86.13-1.37.33-1.45.67-2.9,1-4.36.27-1.19.93-2.14,1.96-2.82.59-.38,1.17-.78,1.75-1.17l.53-.36s.09-.06.14-.09l.03-.02c.05-.04.1-.07.15-.11.16-.1.32-.2.49-.29.39-.21.76-.36,1.14-.46.14-.04.29-.07.43-.09.03,0,.06,0,.09-.01.09,0,.16-.01.23-.02h.14c.17,0,.34-.01.51,0,.02,0,.05,0,.07,0v-.91c-.16-.02-.32-.04-.47-.06l-.17-.02c-.25-.04-.49-.08-.74-.13l-.13-.03c-.24-.05-.43-.09-.62-.13l-.24-.06c-.18-.04-.35-.09-.53-.14l-.23-.06c-.25-.07-.49-.14-.74-.22-.18-.06-.38-.12-.57-.19l-.12-.04s-.06-.02-.06-.02c-.13-.05-.27-.1-.4-.15l-.21-.08c-.13-.05-.26-.1-.38-.15l-.2-.08c-.14-.06-.28-.12-.42-.19l-.14-.06c-.18-.08-.37-.17-.55-.26l-.09-.05c-.18-.09-.32-.16-.45-.23l-1.22-.7c-.77-.48-1.54-1.03-2.35-1.7-.06-.05-.11-.1-.16-.16-1.39,1.74-2.09,4.17-2.09,7.5v11.95c0,8.38,4.35,11.16,13.3,11.16h2.36c8.94,0,13.3-2.78,13.3-11.16v-11.95c0-1.66-.18-3.1-.52-4.34l-.08.02Z"/>
      </g>
    </g>
  </g>
</svg>